<svg  width="100" height="100" viewBox="0 0 24 24" fill="none" xmlns="http://www.w3.org/2000/svg">
<path d="M14.6784 5.0784C15.2411 4.51572 16.0042 4.19961 16.8 4.19961C17.5957 4.19961 18.3589 4.51572 18.9216 5.0784C19.4843 5.64108 19.8004 6.40425 19.8004 7.2C19.8004 7.99576 19.4843 8.75892 18.9216 9.3216L17.4516 10.7904C17.2877 10.9602 17.1971 11.1876 17.1993 11.4236C17.2014 11.6596 17.2962 11.8852 17.4631 12.052C17.6301 12.2188 17.8559 12.3134 18.0918 12.3153C18.3278 12.3172 18.5551 12.2264 18.7248 12.0624L20.1936 10.5936C21.0679 9.68831 21.5517 8.47582 21.5408 7.21728C21.5299 5.95873 21.0251 4.75483 20.1351 3.86487C19.2451 2.97491 18.0412 2.4701 16.7827 2.45917C15.5242 2.44823 14.3117 2.93204 13.4064 3.8064L9.80637 7.4064C9.33879 7.87403 8.97287 8.43323 8.73157 9.04894C8.49028 9.66464 8.37881 10.3236 8.40416 10.9844C8.42951 11.6452 8.59114 12.2936 8.87889 12.889C9.16665 13.4844 9.57433 14.014 10.0764 14.4444C10.258 14.596 10.4919 14.67 10.7277 14.6504C10.9634 14.6309 11.1819 14.5193 11.336 14.3398C11.4901 14.1603 11.5673 13.9274 11.551 13.6914C11.5347 13.4554 11.4261 13.2353 11.2488 13.0788C10.9346 12.8099 10.6795 12.4789 10.4993 12.1067C10.3192 11.7345 10.2179 11.3291 10.2019 10.9158C10.1859 10.5026 10.2555 10.0906 10.4063 9.70553C10.5572 9.3205 10.786 8.9708 11.0784 8.6784L14.6784 5.0784Z" fill="#272729"/>
<path d="M13.9236 9.55559C13.7421 9.40399 13.5081 9.32998 13.2724 9.34956C13.0366 9.36914 12.8181 9.48074 12.664 9.66021C12.5099 9.83969 12.4327 10.0726 12.449 10.3086C12.4653 10.5446 12.5739 10.7646 12.7512 10.9212C13.0654 11.1901 13.3206 11.5211 13.5007 11.8933C13.6809 12.2655 13.7821 12.6709 13.7981 13.0842C13.8141 13.4974 13.7445 13.9094 13.5937 14.2945C13.4429 14.6795 13.2141 15.0292 12.9216 15.3216L9.32165 18.9216C8.75897 19.4843 7.9958 19.8004 7.20005 19.8004C6.40429 19.8004 5.64113 19.4843 5.07845 18.9216C4.51576 18.3589 4.19965 17.5957 4.19965 16.8C4.19965 16.0042 4.51576 15.2411 5.07845 14.6784L6.54845 13.2096C6.71231 13.0398 6.80292 12.8124 6.80076 12.5764C6.7986 12.3404 6.70384 12.1147 6.53689 11.948C6.36995 11.7812 6.14417 11.6866 5.90819 11.6847C5.67221 11.6827 5.44491 11.7736 5.27525 11.9376L3.80645 13.4064C3.348 13.8492 2.98232 14.3788 2.73076 14.9645C2.4792 15.5501 2.34678 16.1799 2.34125 16.8173C2.33571 17.4546 2.45716 18.0867 2.6985 18.6766C2.93985 19.2665 3.29627 19.8024 3.74695 20.2531C4.19764 20.7038 4.73357 21.0602 5.32347 21.3015C5.91337 21.5429 6.54543 21.6643 7.18277 21.6588C7.82011 21.6533 8.44997 21.5208 9.03559 21.2693C9.62121 21.0177 10.1509 20.652 10.5936 20.1936L14.1936 16.5936C14.6612 16.126 15.0272 15.5668 15.2684 14.9511C15.5097 14.3354 15.6212 13.6764 15.5959 13.0156C15.5705 12.3548 15.4089 11.7064 15.1211 11.111C14.8334 10.5155 14.4257 9.98602 13.9236 9.55559Z" fill="black"/>
</svg>
