<svg width="20" height="20" viewBox="0 0 20 20" fill="none" xmlns="http://www.w3.org/2000/svg">
<path d="M18.25 12.15V16.4C18.25 17.494 17.463 18.436 16.378 18.58C14.291 18.857 12.162 19 9.99999 19C7.83799 19 5.70899 18.857 3.62199 18.58C2.53699 18.436 1.74999 17.494 1.74999 16.4V12.15M18.25 12.15C18.4874 11.9436 18.6774 11.6883 18.8069 11.4016C18.9364 11.1149 19.0022 10.8036 19 10.489V6.706C19 5.625 18.232 4.691 17.163 4.531C16.0303 4.36142 14.8919 4.23234 13.75 4.144M18.25 12.15C18.056 12.315 17.83 12.445 17.577 12.53C15.1332 13.3408 12.5748 13.7528 9.99999 13.75C7.35199 13.75 4.80499 13.321 2.42299 12.53C2.17625 12.4479 1.94772 12.3189 1.74999 12.15M1.74999 12.15C1.51254 11.9436 1.32256 11.6883 1.19309 11.4016C1.06363 11.1149 0.997757 10.8036 0.999994 10.489V6.706C0.999994 5.625 1.76799 4.691 2.83699 4.531C3.96969 4.36142 5.10808 4.23233 6.24999 4.144M13.75 4.144V3.25C13.75 2.65326 13.5129 2.08097 13.091 1.65901C12.669 1.23705 12.0967 1 11.5 1H8.49999C7.90326 1 7.33096 1.23705 6.909 1.65901C6.48705 2.08097 6.24999 2.65326 6.24999 3.25V4.144M13.75 4.144C11.2537 3.95108 8.74627 3.95108 6.24999 4.144H13.75ZM9.99999 10.75H10.008V10.758H9.99999V10.75Z" fill="#F4F4F5" fill-opacity="0.05"/>
<path d="M18.25 12.15V16.4C18.25 17.494 17.463 18.436 16.378 18.58C14.291 18.857 12.162 19 9.99999 19C7.83799 19 5.70899 18.857 3.62199 18.58C2.53699 18.436 1.74999 17.494 1.74999 16.4V12.15M18.25 12.15C18.4875 11.9436 18.6774 11.6883 18.8069 11.4016C18.9364 11.1149 19.0022 10.8036 19 10.489V6.706C19 5.625 18.232 4.691 17.163 4.531C16.0303 4.36142 14.8919 4.23234 13.75 4.144M18.25 12.15C18.056 12.315 17.83 12.445 17.577 12.53C15.1332 13.3408 12.5748 13.7528 9.99999 13.75C7.35199 13.75 4.80499 13.321 2.42299 12.53C2.17625 12.4479 1.94772 12.3189 1.74999 12.15M1.74999 12.15C1.51254 11.9436 1.32256 11.6883 1.19309 11.4016C1.06363 11.1149 0.997757 10.8036 0.999994 10.489V6.706C0.999994 5.625 1.76799 4.691 2.83699 4.531C3.96969 4.36142 5.10808 4.23233 6.24999 4.144M13.75 4.144V3.25C13.75 2.65326 13.5129 2.08097 13.091 1.65901C12.669 1.23705 12.0967 1 11.5 1H8.49999C7.90326 1 7.33096 1.23705 6.909 1.65901C6.48705 2.08097 6.24999 2.65326 6.24999 3.25V4.144M13.75 4.144C11.2537 3.95108 8.74627 3.95108 6.24999 4.144M9.99999 10.75H10.008V10.758H9.99999V10.75Z" stroke="#71717A" stroke-width="1.5" stroke-linecap="round" stroke-linejoin="round"/>
</svg>
